<svg width="12" height="20" viewBox="0 0 12 20" fill="none" xmlns="http://www.w3.org/2000/svg">
<path fill-rule="evenodd" clip-rule="evenodd" d="M11.3079 0.476318H8.71749C5.80956 0.476318 3.93017 2.31784 3.93017 5.17498V7.33334H1.33336C1.22906 7.33258 1.12835 7.37172 1.05171 7.44246C0.975068 7.51321 0.928223 7.61063 0.920649 7.71466V10.8254C0.919056 10.8786 0.928937 10.9319 0.949558 10.981C0.970179 11.0301 1.00104 11.0739 1.04016 11.11C1.07928 11.1461 1.12568 11.1733 1.17626 11.19C1.22684 11.2066 1.28044 11.2126 1.33336 11.2067H3.93017V19.1432C3.93737 19.2463 3.98324 19.3423 4.05859 19.4129C4.13395 19.4836 4.23323 19.5234 4.33652 19.5239H7.73333C7.83662 19.5234 7.93591 19.4836 8.01127 19.4129C8.08662 19.3423 8.13249 19.2463 8.13969 19.1432V11.2067H11.181C11.2336 11.2124 11.2867 11.2067 11.3369 11.19C11.3871 11.1732 11.4331 11.1456 11.4717 11.1094C11.5103 11.0732 11.5406 11.0294 11.5605 10.9804C11.5805 10.9314 11.5897 10.8783 11.5873 10.8254V7.71466C11.5914 7.66611 11.5829 7.61709 11.5629 7.57267C11.5429 7.52825 11.512 7.48963 11.473 7.46044C11.3925 7.38679 11.2898 7.34197 11.181 7.33334H8.13969V5.49244C8.13969 4.60355 8.36191 4.15873 9.56191 4.15873H11.3016C11.4059 4.15949 11.5066 4.12097 11.5832 4.05023C11.6599 3.97948 11.7067 3.88206 11.7143 3.77803V0.857023C11.7071 0.753983 11.6612 0.657951 11.5859 0.587305C11.5105 0.51666 11.4112 0.476867 11.3079 0.476318Z" fill="white"/>
</svg>
