<svg width="43" height="43" viewBox="0 0 43 43" fill="none" xmlns="http://www.w3.org/2000/svg">
<path d="M37.9609 5.03906H15.1172V0H0V35.4414H15.1172V40.4805H7.55859V43H43V15.2012H37.9609V5.03906ZM2.51953 17.7207H12.5977V20.2402H2.51953V17.7207ZM12.5977 2.51953V15.2012H2.51953V2.51953H12.5977ZM15.1172 22.7598V7.55859H35.4414V15.2012H22.8438V27.8828H2.51953V22.7598H15.1172ZM2.51953 30.4023H22.8438V32.9219H2.51953V30.4023ZM17.6367 40.4805V35.4414H22.8438V40.4805H17.6367ZM25.3633 40.4805V37.9609H40.4805V40.4805C39.6498 40.4805 26.2559 40.4805 25.3633 40.4805ZM40.4805 35.4414H25.3633V17.7207H40.4805V35.4414Z" fill="#8B8B8B"/>
<path d="M30.4023 20.2402H35.4414V22.7598H30.4023V20.2402Z" fill="#8B8B8B"/>
<path d="M5.03906 5.03906H10.0781V7.55859H5.03906V5.03906Z" fill="#8B8B8B"/>
</svg>
