<svg width="43" height="43" viewBox="0 0 43 43" fill="none" xmlns="http://www.w3.org/2000/svg">
<path d="M41.56 8.87244L41.3308 8.64329C41.0555 8.36804 40.6092 8.36804 40.3338 8.64329L35.3482 13.6289C33.9716 15.0059 31.7394 15.0061 30.3625 13.6295C30.3622 13.6293 30.362 13.6291 30.3618 13.6289L29.3649 12.6312C27.9879 11.2546 27.9877 9.02244 29.3642 7.64551C29.3644 7.64524 29.3646 7.64506 29.3649 7.64489L34.3512 2.65925C34.4104 2.59932 34.4583 2.52907 34.4922 2.45195C34.4965 2.44279 34.5056 2.43574 34.5091 2.42657C34.5273 2.37131 34.5384 2.31393 34.5423 2.25594C34.5507 2.22492 34.5571 2.19337 34.5613 2.16146C34.5579 2.13555 34.5527 2.10981 34.5458 2.08461C34.5332 1.92579 34.4659 1.77631 34.3554 1.66156L34.1439 1.45003C32.5844 -0.104147 30.186 -0.442058 28.2579 0.620854L22.4078 3.68091C22.3743 3.69828 22.3422 3.71837 22.3119 3.74085C18.9275 6.27068 18.5954 10.8149 19.763 14.3079L19.2096 15.5926C18.6103 16.9923 17.7487 18.2643 16.6713 19.3401L1.4457 34.5685C-0.481819 36.496 -0.481819 39.6213 1.4457 41.5488C3.37322 43.4763 6.4985 43.4763 8.42602 41.5488L23.6495 26.3239C24.7263 25.2461 25.9996 24.3845 27.4005 23.7856L28.6696 23.2413C29.8737 23.6489 31.1355 23.8598 32.4066 23.866C35.0695 23.9743 37.6226 22.7984 39.2713 20.7044C39.294 20.6739 39.3143 20.6416 39.3319 20.6078L42.3729 14.7733C43.4484 12.8451 43.1168 10.4378 41.56 8.87244ZM26.8442 22.4883C25.2786 23.1583 23.8557 24.1218 22.6525 25.327L7.42833 40.5525C6.05121 41.9296 3.81839 41.9296 2.44128 40.5525C1.06416 39.1754 1.06416 36.9426 2.44128 35.5655L17.6711 20.3399C18.8754 19.1377 19.8385 17.716 20.5083 16.1517L20.5281 16.1052C21.0016 17.002 21.6049 17.824 22.3183 18.5448L24.4723 20.6988C25.1844 21.4041 25.9953 22.0021 26.8794 22.4742L26.8442 22.4883ZM41.1341 14.1006V14.0978L38.11 19.8992C35.9412 22.7407 31.8108 22.8909 28.8734 21.8234C27.597 21.3714 26.4345 20.6464 25.4672 19.699L23.3117 17.5478C22.3566 16.5704 21.6283 15.3947 21.1789 14.1042C20.1212 11.1816 20.2778 7.06743 23.1122 4.90635L28.9263 1.86744C30.1734 1.17681 31.7134 1.30337 32.831 2.18825L28.3679 6.65143C26.4404 8.57877 26.4402 11.7039 28.3675 13.6314C28.3676 13.6315 28.3678 13.6317 28.3679 13.6317L29.3649 14.6287C31.2922 16.5563 34.4173 16.5564 36.3448 14.6291C36.3449 14.629 36.3451 14.6288 36.3452 14.6287L40.8098 10.1634C41.7087 11.2876 41.837 12.8444 41.1341 14.1006Z" fill="#8B8B8B" stroke="#8B8B8B"/>
</svg>
