<svg width="32" height="42" viewBox="0 0 32 42" fill="none" xmlns="http://www.w3.org/2000/svg">
<path d="M30.7656 0H1.23438C0.554828 0 0.00390625 0.550922 0.00390625 1.23047V40.7695C0.00390625 41.4491 0.554828 42 1.23438 42H30.7656C31.4452 42 31.9961 41.4491 31.9961 40.7695V1.23047C31.9961 0.550922 31.4452 0 30.7656 0ZM29.5352 5.64268L26.3534 2.46094H29.5352V5.64268ZM24.6133 4.20107L27.795 7.38281H24.6133V4.20107ZM2.46484 39.5391V2.46094H22.1523V8.61328C22.1523 9.29283 22.7033 9.84375 23.3828 9.84375H29.5352V39.5391H2.46484Z" fill="#8B8B8B"/>
<path d="M18.7606 16.7843C18.114 16.5754 17.4203 16.9302 17.2114 17.5768L12.7684 31.3267C12.5595 31.9733 12.9143 32.6669 13.5609 32.8759C13.6867 32.9165 13.8141 32.9358 13.9395 32.9358C14.4589 32.9358 14.9418 32.6042 15.1102 32.0833L19.5531 18.3334C19.7621 17.6868 19.4073 16.9932 18.7606 16.7843Z" fill="#8B8B8B"/>
<path d="M11.5314 20.6187C11.0944 20.0984 10.3181 20.0309 9.79785 20.468L5.36816 24.189C5.08975 24.4228 4.92905 24.7676 4.92905 25.1311C4.92905 25.4946 5.08975 25.8395 5.36816 26.0732L9.79785 29.7942C10.0285 29.9879 10.3092 30.0825 10.5886 30.0825C10.9395 30.0825 11.288 29.9331 11.5314 29.6434C11.9685 29.1231 11.901 28.3469 11.3806 27.9098L8.07265 25.131L11.3806 22.3522C11.901 21.9152 11.9685 21.1391 11.5314 20.6187Z" fill="#8B8B8B"/>
<path d="M26.6385 24.189L22.2088 20.468C21.6884 20.0309 20.9124 20.0984 20.4752 20.6187C20.0381 21.1391 20.1056 21.9152 20.626 22.3523L23.934 25.1311L20.626 27.9099C20.1056 28.347 20.0381 29.1232 20.4752 29.6435C20.7186 29.9332 21.0671 30.0826 21.418 30.0826C21.6973 30.0826 21.9782 29.988 22.2088 29.7943L26.6385 26.0733C26.9169 25.8395 27.0776 25.4947 27.0776 25.1312C27.0776 24.7677 26.9169 24.4227 26.6385 24.189Z" fill="#8B8B8B"/>
</svg>
