<svg width="39" height="35" viewBox="0 0 39 35" fill="none" xmlns="http://www.w3.org/2000/svg">
<path d="M36.7134 0.591431H2.2866C1.02577 0.591431 0 1.6172 0 2.87803V32.122C0 33.3828 1.02577 34.4086 2.2866 34.4086H36.7134C37.9742 34.4086 39 33.3828 39 32.122V2.87803C39 1.6172 37.9742 0.591431 36.7134 0.591431ZM2.2866 2.87803H36.7134V5.20793H2.28531L2.28516 2.87811C2.28516 2.87811 2.28561 2.87803 2.2866 2.87803ZM2.2866 32.122L2.28538 7.49461H36.7134V32.122H2.2866Z" fill="#8B8B8B"/>
<path d="M31.0767 18.8868L26.3495 15.1411C25.8547 14.7489 25.1355 14.8322 24.7434 15.3271C24.3512 15.822 24.4345 16.5411 24.9294 16.9332L28.5257 19.7829L24.9293 22.6326C24.4344 23.0248 24.3512 23.7439 24.7434 24.2387C24.969 24.5235 25.303 24.672 25.6402 24.672C25.8889 24.672 26.1394 24.5912 26.3495 24.4248L31.0767 20.6789C31.3503 20.462 31.51 20.132 31.51 19.7828C31.51 19.4338 31.3504 19.1038 31.0767 18.8868Z" fill="#8B8B8B"/>
<path d="M14.2566 15.3274C13.8644 14.8325 13.1453 14.7491 12.6505 15.1413L7.92324 18.8871C7.64953 19.104 7.48993 19.434 7.48993 19.7832C7.48993 20.1324 7.64953 20.4624 7.92316 20.6793L12.6504 24.4252C12.8605 24.5916 13.1109 24.6724 13.3597 24.6724C13.6968 24.6723 14.0309 24.5239 14.2565 24.2391C14.6487 23.7443 14.5654 23.0251 14.0705 22.633L10.4742 19.7833L14.0705 16.9336C14.5654 16.5413 14.6487 15.8223 14.2566 15.3274Z" fill="#8B8B8B"/>
<path d="M21.3918 12.7143C20.7812 12.5526 20.1555 12.9164 19.9939 13.5268L16.8351 25.4538C16.6735 26.0642 17.0372 26.6901 17.6476 26.8517C17.7457 26.8777 17.8442 26.8901 17.9411 26.8901C18.4472 26.8901 18.9098 26.5516 19.0455 26.0392L22.2043 14.1123C22.3659 13.5018 22.0021 12.876 21.3918 12.7143Z" fill="#8B8B8B"/>
</svg>
