<svg width="43" height="39" viewBox="0 0 43 39" fill="none" xmlns="http://www.w3.org/2000/svg">
<path d="M40.4805 0.855469H2.51953C1.13379 0.855469 0 1.98926 0 3.375V35.625C0 37.0191 1.13379 38.1445 2.51953 38.1445H40.4805C41.8746 38.1445 43 37.0107 43 35.625V3.375C43 1.98926 41.8662 0.855469 40.4805 0.855469ZM2.51953 3.375H40.4805V5.94492H2.51953V3.375ZM2.51953 35.625V8.47285H40.4805V35.625H2.51953Z" fill="#8B8B8B"/>
<path d="M21.332 10.8328C15.1508 10.8328 10.1201 15.8634 10.1201 22.0447C10.1201 28.2259 15.1508 33.2566 21.332 33.2566C27.5133 33.2566 32.5439 28.2259 32.5439 22.0447C32.5439 15.8634 27.5133 10.8328 21.332 10.8328ZM11.2539 22.0447C11.2539 20.5833 11.5646 19.1976 12.1273 17.9462L16.9396 31.1234C13.5719 29.4773 11.2539 26.0339 11.2539 22.0447ZM21.332 32.1228C20.341 32.1228 19.3836 31.98 18.485 31.7113L21.5084 22.9265L24.6074 31.4173C24.6326 31.4677 24.6494 31.5097 24.683 31.5601C23.6416 31.9212 22.5078 32.1228 21.332 32.1228ZM22.7262 17.3248C23.3309 17.2912 23.8768 17.2324 23.8768 17.2324C24.4227 17.1652 24.3555 16.3673 23.8096 16.4009C23.8096 16.4009 22.1803 16.5269 21.1221 16.5269C20.1311 16.5269 18.4682 16.4009 18.4682 16.4009C17.9223 16.3673 17.8635 17.1988 18.4094 17.2324C18.4094 17.2324 18.9217 17.2996 19.4676 17.3248L21.0381 21.6248L18.8293 28.2427L15.1592 17.3248C15.7639 17.2912 16.3098 17.2324 16.3098 17.2324C16.8557 17.1652 16.7885 16.3673 16.2426 16.4009C16.2426 16.4009 14.6133 16.5269 13.5551 16.5269C13.3619 16.5269 13.1436 16.5185 12.9 16.5101C14.7057 13.7722 17.8047 11.9666 21.3236 11.9666C23.9439 11.9666 26.3375 12.9744 28.1348 14.6121C28.0928 14.6037 28.0508 14.6037 28.0004 14.6037C27.0094 14.6037 26.3123 15.4687 26.3123 16.3925C26.3123 17.224 26.791 17.921 27.3033 18.7609C27.6896 19.4328 28.1348 20.2894 28.1348 21.5408C28.1348 22.4058 27.8072 23.4052 27.3621 24.7994L26.3543 28.1587L22.7262 17.3248ZM30.184 17.2072C30.9734 18.6433 31.4186 20.2894 31.4186 22.0447C31.4186 25.7652 29.4029 29.007 26.4047 30.7539L29.4785 21.8515C30.0496 20.4154 30.2512 19.2648 30.2512 18.2402C30.2512 17.8707 30.226 17.5263 30.184 17.2072Z" fill="#8B8B8B"/>
</svg>
