<svg width="43" height="43" viewBox="0 0 43 43" fill="none" xmlns="http://www.w3.org/2000/svg">
<path d="M43 37.957V7.5645H32.5367C30.8206 3.14318 26.5207 0 21.5 0C16.4793 0 12.1794 3.14318 10.4633 7.5645H0V37.957H13.9365V40.4805H10.1529V43H32.8471V40.4805H29.0635V37.957H43ZM29.7767 7.5645H25.9971C25.7684 5.93172 25.402 4.4059 24.8892 3.15794C27.0023 3.98631 28.741 5.56495 29.7767 7.5645ZM21.5 2.5215C21.6555 2.57005 22.2834 3.09627 22.8739 4.99313C23.1124 5.76015 23.306 6.62853 23.4513 7.5645H19.5487C19.694 6.62853 19.8876 5.76015 20.1261 4.99313C20.7166 3.09627 21.3445 2.57005 21.5 2.5215ZM23.7141 10.084C23.7472 10.6568 23.765 11.2414 23.765 11.8339C23.765 12.4267 23.7472 13.0113 23.7141 13.5838H19.2859C19.2528 13.0113 19.235 12.4267 19.235 11.8339C19.235 11.2414 19.2528 10.6568 19.2859 10.084H23.7141ZM21.5 21.1467C21.3445 21.0981 20.7166 20.5719 20.1261 18.675C19.8876 17.908 19.694 17.0396 19.5487 16.1033H23.4513C23.306 17.0396 23.1124 17.908 22.8739 18.675C22.2834 20.5719 21.6555 21.0981 21.5 21.1467ZM16.7628 13.5838H12.351C12.2427 13.0169 12.1856 12.432 12.1856 11.8339C12.1856 11.2359 12.2427 10.6513 12.351 10.084H16.7628C16.7316 10.6673 16.7155 11.2529 16.7155 11.8339C16.7155 12.4153 16.7313 13.0008 16.7628 13.5838ZM17.0032 16.1033C17.2316 17.7365 17.598 19.2623 18.1108 20.5102C15.9977 19.6819 14.259 18.1032 13.2233 16.1033H17.0032ZM25.9968 16.1033H29.7767C28.741 18.1032 27.0023 19.6819 24.8892 20.5102C25.402 19.2623 25.7684 17.7365 25.9968 16.1033ZM30.8144 11.8339C30.8144 12.432 30.7573 13.0169 30.649 13.5838H26.2372C26.2687 13.0008 26.2845 12.4153 26.2845 11.8339C26.2845 11.2529 26.2687 10.6673 26.2372 10.084H30.649C30.7573 10.6513 30.8144 11.2359 30.8144 11.8339ZM18.1108 3.15794C17.598 4.40557 17.2316 5.93172 17.0032 7.5645H13.2233C14.259 5.56495 15.9977 3.98631 18.1108 3.15794ZM9.79566 10.084C9.71037 10.6552 9.66608 11.2395 9.66608 11.8339C9.66608 18.3594 14.9748 23.6682 21.5 23.6682C28.0252 23.6682 33.3339 18.3594 33.3339 11.8339C33.3339 11.2395 33.2896 10.6552 33.2043 10.084H40.4805V28.7131H2.51953V10.084H9.79566ZM2.51953 31.2327H40.4805V35.4375H2.51953V31.2327ZM26.544 40.4805H16.456V37.957H26.544V40.4805Z" fill="#8B8B8B"/>
</svg>
