<svg width="41" height="41" viewBox="0 0 41 41" fill="none" xmlns="http://www.w3.org/2000/svg">
<path d="M20.5 0C9.19938 0 0 9.19254 0 20.5C0 31.8006 9.19938 41 20.5 41C31.8006 41 41 31.8006 41 20.5C41 9.19083 31.8006 0 20.5 0ZM2.06708 20.4983C2.06708 17.8282 2.63596 15.2913 3.66267 13.0004L12.4572 37.0879C6.30546 34.0966 2.06708 27.7912 2.06708 20.4983ZM20.5 38.9329C18.6892 38.9329 16.945 38.6681 15.293 38.1795L20.8229 22.111L26.486 37.6346C26.527 37.7268 26.5697 37.8071 26.6175 37.8908C24.7076 38.5605 22.6491 38.9329 20.5 38.9329ZM23.0369 11.8644V11.8627C24.1439 11.8046 25.1433 11.6901 25.1433 11.6901C26.1358 11.574 26.0196 10.1116 25.0271 10.168C25.0271 10.168 22.0426 10.3986 20.1173 10.3986C18.3065 10.3986 15.264 10.168 15.264 10.168C14.2731 10.1099 14.1587 11.632 15.1495 11.6901C15.1495 11.6901 16.0908 11.8063 17.0833 11.8627L19.9516 19.7313L15.9183 31.8245L9.20792 11.8627C10.3166 11.8046 11.316 11.6901 11.316 11.6901C12.3085 11.574 12.1924 10.1116 11.1998 10.168C11.1998 10.168 8.21537 10.3986 6.29008 10.3986C5.94329 10.3986 5.53671 10.3901 5.09937 10.3747C8.39817 5.37271 14.0596 2.06708 20.5 2.06708C25.2953 2.06708 29.6669 3.90354 32.9486 6.90167C32.8649 6.89313 32.7915 6.88629 32.7095 6.88629C30.8986 6.88629 29.6174 8.46479 29.6174 10.1595C29.6174 11.6799 30.4937 12.9611 31.4282 14.4832C32.1303 15.7064 32.9503 17.2849 32.9503 19.5673C32.9503 21.1458 32.3473 22.972 31.5444 25.5276L29.7079 31.6691L23.0369 11.8644ZM36.6779 11.656C38.1163 14.2851 38.9346 17.2935 38.9346 20.5017C38.9346 27.3043 35.248 33.239 29.7677 36.4302L29.766 36.4285L35.395 20.1515C36.4439 17.5224 36.8009 15.4245 36.8009 13.5471C36.8009 12.8706 36.7599 12.2419 36.6779 11.656Z" fill="#8B8B8B"/>
</svg>
