<svg width="22" height="18" viewBox="0 0 22 18" fill="none" xmlns="http://www.w3.org/2000/svg">
<path d="M6.91856 18C15.2205 18 19.7613 11.0743 19.7613 5.0683C19.7613 4.87158 19.7613 4.67576 19.7481 4.48082C20.6315 3.83743 21.394 3.0408 22 2.12823C21.1762 2.49578 20.3023 2.73682 19.4075 2.84331C20.3498 2.2753 21.055 1.38193 21.3919 0.329451C20.5059 0.858855 19.5366 1.23195 18.5258 1.43264C17.8452 0.703991 16.9452 0.221496 15.9648 0.0598233C14.9845 -0.10185 13.9786 0.0663124 13.1028 0.538287C12.227 1.01026 11.53 1.75974 11.1198 2.67073C10.7097 3.58173 10.6091 4.60345 10.8337 5.5778C9.03914 5.48722 7.28358 5.01764 5.68096 4.19956C4.07835 3.38148 2.6645 2.23318 1.5312 0.82921C0.954001 1.82976 0.777216 3.0142 1.03684 4.14139C1.29647 5.26857 1.97298 6.25374 2.92864 6.89632C2.21033 6.87488 1.50769 6.67977 0.88 6.32744C0.88 6.34605 0.88 6.36554 0.88 6.38504C0.880285 7.43437 1.24103 8.4513 1.90105 9.26335C2.56107 10.0754 3.47972 10.6326 4.5012 10.8403C3.83669 11.0228 3.13947 11.0495 2.46312 10.9183C2.75155 11.8214 3.31308 12.6111 4.06918 13.177C4.82528 13.743 5.73814 14.0568 6.68008 14.0746C5.08177 15.3394 3.10733 16.0261 1.07448 16.024C0.715355 16.0233 0.35658 16.0014 0 15.9584C2.06416 17.2923 4.46592 17.9997 6.91856 17.9965" fill="white"/>
</svg>
