<svg width="23" height="23" viewBox="0 0 23 23" fill="none" xmlns="http://www.w3.org/2000/svg">
<path fill-rule="evenodd" clip-rule="evenodd" d="M21.0234 13.1538L18.5509 11.5L21.0234 9.84616V13.1538ZM12.4883 20.1645V15.5552L16.7735 12.6895L20.2321 15.0025L12.4883 20.1645ZM11.5 13.8381L8.00472 11.5L11.5 9.16191L14.996 11.5L11.5 13.8381ZM10.5117 20.1645L2.76791 15.0025L6.22725 12.6895L10.5117 15.5552V20.1645ZM1.97656 9.84616L4.44978 11.5L1.97656 13.1538V9.84616ZM10.5117 2.83547V7.44481L6.22725 10.3112L2.76791 7.99753L10.5117 2.83547ZM12.4883 2.83547L20.2321 7.99753L16.7735 10.3112L12.4883 7.44481V2.83547ZM22.9914 7.86744C22.9892 7.85234 22.9856 7.83869 22.9835 7.82431C22.9784 7.79628 22.9734 7.76825 22.9662 7.74166C22.9619 7.72512 22.9554 7.70931 22.9504 7.6935C22.9425 7.66906 22.9346 7.64534 22.9252 7.62162C22.9188 7.60509 22.9109 7.58856 22.903 7.57347C22.8929 7.55047 22.8821 7.52891 22.8692 7.50806C22.8606 7.49225 22.8505 7.47716 22.8412 7.46206C22.8282 7.44122 22.8146 7.42109 22.7995 7.40169C22.7887 7.38731 22.7772 7.37294 22.7657 7.35928C22.7499 7.34059 22.7333 7.32262 22.7161 7.30537C22.7032 7.29244 22.6909 7.27878 22.6773 7.26728C22.6586 7.25075 22.6399 7.23494 22.6212 7.21984C22.6061 7.20834 22.5917 7.19684 22.5767 7.18606C22.5709 7.18247 22.5659 7.17744 22.5601 7.17384L12.0484 0.166031C11.7163 -0.0553437 11.2844 -0.0553437 10.9516 0.166031L0.440594 7.17384C0.434844 7.17744 0.429812 7.18247 0.424062 7.18606C0.40825 7.19684 0.393875 7.20834 0.3795 7.21984C0.360094 7.23494 0.341406 7.25075 0.323437 7.26728C0.309781 7.27878 0.296844 7.29244 0.283906 7.30537C0.266656 7.32262 0.250125 7.34059 0.235031 7.35928C0.222812 7.37294 0.211313 7.38731 0.200531 7.40169C0.186156 7.42109 0.1725 7.44122 0.159562 7.46206C0.1495 7.47716 0.140156 7.49225 0.130812 7.50806C0.118594 7.52891 0.107813 7.55047 0.0970313 7.57347C0.0898438 7.58856 0.0819375 7.60509 0.0754687 7.62162C0.0654062 7.64534 0.0575 7.66906 0.0495938 7.6935C0.0445625 7.70931 0.0388125 7.72512 0.0345 7.74166C0.0273125 7.76825 0.0222812 7.79628 0.01725 7.82431C0.014375 7.83869 0.0107812 7.85234 0.00934375 7.86744C0.00359375 7.90912 0 7.95225 0 7.99609V15.0039C0 15.047 0.00359375 15.0902 0.00934375 15.1333C0.0107812 15.1469 0.014375 15.1613 0.01725 15.1757C0.0222812 15.2037 0.0273125 15.231 0.0345 15.2583C0.0388125 15.2749 0.0445625 15.2907 0.0495938 15.3065C0.0575 15.3302 0.0654062 15.3547 0.0754687 15.3791C0.0819375 15.3949 0.0898438 15.4107 0.0970313 15.4265C0.107813 15.4488 0.118594 15.4704 0.130812 15.4927C0.140156 15.5078 0.1495 15.5228 0.159562 15.5379C0.1725 15.5588 0.186156 15.5782 0.200531 15.5976C0.211313 15.6127 0.222812 15.6271 0.235031 15.6407C0.250125 15.6587 0.266656 15.6774 0.283906 15.6939C0.296844 15.7076 0.309781 15.7205 0.323437 15.7327C0.341406 15.7493 0.360094 15.7651 0.3795 15.7802C0.393875 15.7917 0.40825 15.8032 0.424062 15.8139C0.429812 15.8175 0.434844 15.8226 0.440594 15.8262L10.9516 22.834C11.1176 22.9447 11.3088 23 11.5 23C11.6912 23 11.8824 22.9447 12.0484 22.834L22.5601 15.8262C22.5659 15.8226 22.5709 15.8175 22.5767 15.8139C22.5917 15.8032 22.6061 15.7917 22.6212 15.7802C22.6399 15.7651 22.6586 15.7493 22.6773 15.7327C22.6909 15.7205 22.7032 15.7076 22.7161 15.6939C22.7333 15.6774 22.7499 15.6587 22.7657 15.6407C22.7772 15.6271 22.7887 15.6127 22.7995 15.5976C22.8146 15.5782 22.8282 15.5588 22.8412 15.5379C22.8505 15.5228 22.8606 15.5078 22.8692 15.4927C22.8821 15.4704 22.8929 15.4488 22.903 15.4265C22.9109 15.4107 22.9188 15.3949 22.9252 15.3791C22.9346 15.3547 22.9425 15.3302 22.9504 15.3065C22.9554 15.2907 22.9619 15.2749 22.9662 15.2583C22.9734 15.231 22.9784 15.2037 22.9835 15.1757C22.9856 15.1613 22.9892 15.1469 22.9914 15.1333C22.9971 15.0902 23 15.047 23 15.0039V7.99609C23 7.95225 22.9971 7.90912 22.9914 7.86744Z" fill="white"/>
</svg>
