<svg width="23" height="22" viewBox="0 0 23 22" fill="none" xmlns="http://www.w3.org/2000/svg">
<path fill-rule="evenodd" clip-rule="evenodd" d="M11.5 5.83192e-06C8.76717 -0.00271872 6.12267 0.949276 4.04041 2.68539C1.95815 4.4215 0.574237 6.82824 0.136678 9.47432C-0.300881 12.1204 0.236515 14.8328 1.65256 17.1255C3.06861 19.4183 5.27075 21.1414 7.86434 21.9862C8.44322 22.09 8.64795 21.7369 8.64795 21.4391C8.64795 21.1413 8.64795 20.4627 8.64795 19.5209C5.43585 20.2065 4.75814 18.0044 4.75814 18.0044C4.54504 17.3219 4.09234 16.7356 3.48036 16.3494C2.44261 15.6569 3.56507 15.6569 3.56507 15.6569C3.92885 15.7073 4.27617 15.8383 4.58072 16.0398C4.88527 16.2414 5.13907 16.5083 5.3229 16.8203C5.4791 17.0981 5.68969 17.3429 5.94259 17.5407C6.19548 17.7385 6.48571 17.8854 6.79661 17.9729C7.10751 18.0604 7.43296 18.0868 7.7543 18.0506C8.07563 18.0144 8.38652 17.9164 8.66912 17.762C8.71343 17.1924 8.9638 16.657 9.37508 16.2524C6.81952 15.9685 4.1369 14.9991 4.1369 10.7126C4.11935 9.59288 4.54146 8.50939 5.31584 7.6865C4.97095 6.7129 5.01126 5.64777 5.42879 4.70193C5.42879 4.70193 6.39595 4.39724 8.59147 5.85836C10.4768 5.35061 12.4667 5.35061 14.3521 5.85836C16.5476 4.39724 17.5077 4.70193 17.5077 4.70193C17.931 5.63776 17.9814 6.69525 17.6489 7.66573C18.4232 8.48862 18.8454 9.5721 18.8278 10.6919C18.8278 15.0268 16.1381 15.9755 13.5755 16.2317C13.8503 16.5026 14.0625 16.8283 14.1977 17.1868C14.3329 17.5452 14.3879 17.928 14.3591 18.3091C14.3591 19.8187 14.3591 21.0375 14.3591 21.4045C14.3591 21.7715 14.5638 22.0554 15.1498 21.9446C17.7138 21.0776 19.883 19.3495 21.274 17.0657C22.6651 14.7819 23.1885 12.0894 22.7518 9.46373C22.3151 6.83808 20.9464 4.44832 18.8875 2.71661C16.8286 0.984908 14.212 0.0227116 11.5 5.83192e-06Z" fill="white"/>
</svg>
